<svg version="1.2" xmlns="http://www.w3.org/2000/svg" viewBox="0 0 1194 329" width="100%" height="100%"><defs><clipPath clipPathUnits="userSpaceOnUse" id="cp1"><path d="m0.74-435.38h1192.52v763.38h-1192.52z"/></clipPath><linearGradient id="P" gradientUnits="userSpaceOnUse"/><linearGradient id="g1" x1="-77.7" y1="374.2" x2="-77.7" y2="-1.6" href="#P"><stop offset="0" stop-color="#113246"/><stop offset="1" stop-color="#1f6561"/></linearGradient></defs><style>.a{fill:url(#g1)}</style><g clip-path="url(#cp1)"><path fill-rule="evenodd" class="a" d="m1332 335c-13.6 29.7-69.7 39.8-118.5 41.8-87 3.5-898.8 12.4-1215.6-9l-61.9-9.3c-3.6-46.4-6-75-9.7-121.5 11.1-0.6 21.6-1.1 31.8-1.5 1.7-3.1 3.8-8.1 4.8-11.4q-2.6 1.4-4.9 3.3c5-8.9 9.1-17.9 13.9-26.8 2.5-4.6 4.9-9.3 7.2-14q1.7-3.6 3.3-7.3c0.7-1.7 1.6-5.7 2.9-7-2.9 2.7-6.2 4.8-9.8 6.1 8-17.4 14.9-32 18.8-50.1-1.9 2.8-4.6 4.9-7.7 5.9 3.9-7.2 6.7-15.1 8.2-23.3-0.5 2.3-2.5 4-4.7 4 6.9-18.4 14-42.2 14.1-44.9-0.7 0.8-1.6 1.4-2.5 1.6 2-2.3 3.7-5.1 4.6-8.1-1.3 1.4-1.8 2.7-3.3 2.7 4.4-13.2 5.1-18.5 6-26.3-0.9 1-1.2 1.4-1.8 1.4 2.5-6.9 3.7-9.7 5.4-19-0.7 1.4-0.8 0.6-1.5 1.3 2.2-5.1 4.9-20 4.9-25.1 0.6 7.1 2.1 14.9 5.4 21.1-1-0.7-1.4-1.3-2.4-2.9 3.7 19.7 4.2 36.2 14.4 50.6q-1.8-0.7-3.7-1.3c0.6 3.5 1.7 6.9 3.3 10.1q-1.9-1-3.8-2c4.1 13.7 6.5 19.9 14.3 31.9-2.6-1.1-4.9-3-6.6-5.2q3.7 7.8 7.3 15.6c-3.2-0.1-4.6-1.3-7.1-3.5 4.4 14.9 11.9 34.6 19.2 47.8-2.1-0.2-3.7-0.6-6.5-3 2.2 6.6 3.7 8.9 6.9 14.8-1.9-0.2-3.6-1.2-4.8-2.6 0.8 2.1 2.1 5.2 3.9 9 2.3-6 4.3-12 5.7-18.6-1.5 2.1-3.7 3.8-6.1 4.7 3.1-5.8 5.3-12.1 6.5-18.5-0.4 1.7-2 3.1-3.7 3.1 5.4-14.7 11.1-33.6 11.2-35.7-0.6 0.7-1.3 1.1-2.1 1.3 1.7-1.8 3-4 3.8-6.4-1.1 1.1-1.5 2.1-2.7 2.1 3.5-10.5 4.1-14.7 4.8-20.9-0.8 0.8-1 1.1-1.4 1.1 1.9-5.5 2.9-7.7 4.3-15.1-0.6 1.1-0.7 0.5-1.3 1 1.8-4 3.9-15.9 3.9-19.9 0.6 5.7 1.7 11.8 4.4 16.7-0.9-0.5-1.2-1-2-2.2 3 15.6 3.4 28.7 11.5 40.1q-1.5-0.5-3-1c0.5 2.8 1.4 5.6 2.6 8.1q-1.5-0.8-3-1.6c3.3 10.8 5.2 15.8 11.4 25.3-2-0.9-3.9-2.3-5.3-4.1q3 6.2 5.9 12.4c-2.6-0.1-3.7-1.1-5.7-2.8 3.6 11.9 9.5 27.5 15.3 38-1.7-0.1-3-0.5-5.2-2.4 1.8 5.3 2.9 7.1 5.5 11.8-1.5-0.2-2.9-0.9-3.8-2.1 0.9 2.4 2.8 6.6 5.2 11.5 2.5-4.8 4.5-9.7 6-15.1-1.4 1.6-3.4 2.9-5.7 3.5 2.9-4.2 5-8.8 6.1-13.5-0.3 1.2-1.9 2.2-3.5 2.3 5.1-10.8 10.5-24.6 10.5-26.1-0.5 0.5-1.1 0.8-1.9 0.9 1.6-1.3 2.8-2.9 3.5-4.7-1 0.8-1.3 1.6-2.4 1.6 3.2-7.7 3.8-10.8 4.4-15.3-0.7 0.6-0.9 0.8-1.3 0.8 1.8-4 2.8-5.6 4-11-0.5 0.8-0.6 0.3-1.1 0.8 1.6-3 3.6-11.7 3.6-14.6 0.5 4.1 1.6 8.6 4.1 12.2-0.8-0.4-1.1-0.8-1.8-1.6 2.7 11.4 3.1 20.9 10.8 29.3q-1.4-0.4-2.8-0.8c0.4 2.1 1.2 4.1 2.4 5.9q-1.4-0.5-2.8-1.1c3.1 7.9 4.9 11.5 10.7 18.5-1.9-0.7-3.6-1.7-4.9-3.1q2.7 4.6 5.5 9.1c-2.5 0-3.5-0.8-5.4-2 3.3 8.7 8.9 20.1 14.4 27.8-1.6-0.1-2.8-0.4-4.9-1.8 1.6 3.8 2.8 5.2 5.2 8.6-1.4-0.1-2.7-0.7-3.6-1.5 3 6.3 17.9 28.5 24.5 35.6-0.8 0-1.5 0-2.3 0.1 1 1.6 2.1 3.3 3.1 4.9 0.8-2.2 2.3-4.2 4.2-5.6-0.5 1.8-0.7 3.6-0.6 5.4 1.3-1.7 2.8-3.3 4.6-4.5q-0.7 2.4-1.5 4.7c1.9-1.3 3.6-3 5-4.8 0.6 1.7-0.1 3.6-0.9 5.2 1.5-0.9 2.5-2.4 2.9-4 0.1 1.5-0.2 3-1 4.3 1.7-0.8 3-2.6 3.2-4.5q0 2.5 0 4.9 0.8-1.4 1.7-2.9c0.1 0.4-0.1 1-0.1 1.5 0 2 1.4 0.2 1.5-0.7 0.3-1.1 0-1.9-0.2-2.9-0.4-2.2-0.6-4.6-0.8-6.9-0.1-0.6-0.1-1.3 0-1.9 0.4-1.2 1.5-2 2.6-2.7 2.5-2 4.6-4.4 6.2-7.2 0.9-1.6 1.6-3.3 1.9-5.1 0.3-2.4-0.1-5.2-0.6-7.5-0.2-1-2.2-6.9-1.3-7.5-2.1 1.4-4.9 1.5-7.1 0.3 2.3-1.4 3.2-4.3 4.7-6.5 3.4-5.5 10-7.9 16.2-10q6.4-2.2 12.9-4.4c5.1-1.8 11.8-3.3 14.7-8.4 0.6-1.1 1-2.3 1.4-3.5 1.8-6 3.1-11.3 3.5-17.5q0.1-1.3 0.4-2.6c-1.4-0.7-2.7-1.6-3.8-2.7-2.1-2.1-3.3-5.2-2.8-8.2 0.9 1.7 2.8 2.6 4.7 3.1 1.3 0.3 2.6 0.5 3.9 0.9-0.5-1.9-1.3-3.7-2.7-5.3-4.8-5.2-11.6-10.1-15.9-15.7-2.5-3.3-3.6-7.2-3.9-11q-0.8-0.6-1.6-1.3c-2.1-2.1-3.4-4.7-4.3-7.5-0.8-2.8-1.9-8.1-1.4-8.6 0.5-0.5 2.5 10.8 7.3 14.5 0.3-8.6 4.2-16.3 4.8-15.7 0.4 0.3-0.6 5-1.3 7.4-1.8 5.9-1.2 12.4 1.6 17.8q0.6 1.1 1.2 2.1c-0.8-3.7-0.5-7.5 0.8-11.1 1.6-4.8 7.9-13.2 8.3-12.7 0.4 0.3-2 4.6-3.7 8.1 3.8-1.7 8.5-6.8 8.8-6.5 0.4 0.4-0.7 2.3-1.4 3.2-0.4 0.5-0.9 0.9-1.4 1.3-2.2 1.8-4.7 3.3-7.3 4.6-0.7 1.4-1.3 2.8-1.7 4.4-0.5 1.8-0.5 3.7-0.6 5.5-0.1 2.2 0.4 4.7 1.4 7.2 2.3 2.6 5.1 4.8 7.9 6.9-0.4-3.1 0-6.3 1.8-7.3 0.8-0.4-1.3 3.5 1.2 9.5 1 0.8 2 1.7 2.9 2.7 1.7 2.2 2.7 4.8 3.2 7.6q0.1-0.1 0.2-0.1c2.2-0.8 5.1-0.9 7.4 0 0.6-2.7 1.6-5.3 3.3-7.5 0.9-1 1.8-1.9 2.9-2.7 2.5-6 0.4-9.9 1.2-9.5 1.8 1 2.2 4.2 1.8 7.3 2.8-2.1 5.5-4.3 7.9-6.9 1-2.5 1.5-5 1.4-7.2-0.1-1.8-0.2-3.7-0.6-5.5-0.4-1.6-1.1-3-1.7-4.4-2.6-1.3-5.1-2.8-7.3-4.6-0.5-0.4-1-0.8-1.4-1.3-0.7-0.9-1.8-2.8-1.4-3.2 0.3-0.3 5 4.8 8.8 6.5-1.8-3.5-4.1-7.8-3.8-8.1 0.5-0.5 6.8 7.9 8.4 12.7 1.2 3.6 1.6 7.4 0.8 11.1q0.6-1 1.2-2.1c2.8-5.4 3.4-11.9 1.6-17.8-0.7-2.4-1.7-7.1-1.4-7.4 0.7-0.6 4.6 7.1 4.9 15.7 4.7-3.7 6.8-15 7.3-14.5 0.5 0.5-0.6 5.8-1.4 8.6-0.9 2.8-2.2 5.4-4.3 7.5q-0.8 0.7-1.6 1.3c-0.3 3.8-1.4 7.7-3.9 11-4.4 5.6-11.2 10.5-15.9 15.7-1.8 2-2.6 4.2-2.9 6.6 3.2-0.9 6.8-1.1 9.5-3.2 0.1 2.6-1.3 5-3.3 6.6-1.5 1.1-3.2 1.8-5.1 2.2 0.5 1.7 0.8 3.5 1 5 0.2 1.7 0.3 3.4 0 5-0.2 1.3-0.7 2.5-1.1 3.7q-0.4 1.3-0.7 2.7c0.4 4.3 0.6 8.8 1 13 0.2 2.2 0.4 4.4 0.9 6.5 0.4 2.1 1.2 4.1 1.7 6.3 1 4.6 0.4 9.7-1.6 14-2.6 5.2-5.1 10.6-6.3 16.4-0.8 4.4-0.8 9.3-3.8 13-1.1 1.4-2.7 2.5-3.9 3.9-1.3 1.4-2.3 3.1-2.1 5 0.1 0.7 0.4 1.4 0.4 2.2 0 0.7-0.5 1.5-1.3 1.5-1.1 0-2.9-3.1-3.8-4.6q-0.1 1.4-0.1 2.7c-0.2 2.1-0.1 3.1 1.5 4.4 1.3 1.1 2.5 2.6 4 3.6 0.5-1.4 1.1-2.8 2.1-3.9-0.4 1.9 0.1 4 1.4 5.5 0.2-1.5 0.6-3 1.2-4.5-0.3 1.7 0 3.5 0.8 4.9 0.1-1.7 0.5-3.4 1.3-5-0.2 2.2 0.5 4.4 1.8 6.1 0.7-1.8 1.6-3.5 2.9-5-0.4 2.1-0.3 4.2 0.2 6.2 1.1-2.7 2.3-5.6 4.8-7-1 2.4-1.3 5.2-0.9 7.8 1-1.6 1.5-3.5 1.5-5.4q1.3 2.6 2.1 5.4c1-1.8 2.5-3.3 4.3-4.4q-0.8 2.8-2 5.4c1.4-1.7 3.3-3 5.4-3.8q-1.3 2.3-2.9 4.3c1.4-1.3 3-2.4 4.8-3.1-0.7 1-1.3 2.2-1.6 3.4 1.5-1.1 2.5-2.7 2.8-4.5q0.2 2.7 0.5 5.4c1.3-1.8 3.2-3.3 5.4-4.1-1.6 1.4-2.9 3.1-3.9 5 2-1.6 4.1-2.9 6.4-3.9q-1.7 2.4-2.9 5c2.9 0.5 5.2-2.2 6.8-4.7 0 1.9-0.6 3.7-1.7 5.1 1.9-0.8 3.5-2.2 4.6-3.9-0.5 2.1-1.8 4-3.5 5.3 2.7-0.9 5-2.8 6.5-5.2-0.3 1.9-1.3 3.8-2.8 5.2 2.1-1.4 3.9-3.3 5.1-5.6 0.2 1.9-0.3 3.8-1.3 5.4q2.2-2.4 4.7-4.4c-1 1.6-1.7 3.3-2.1 5.1q2.2-1.7 4-3.8-0.4 2.1-0.9 4.3c2.4-2.3 4.1-5.1 5.1-8.2 0.8-2.7 1.7-5.5 2.4-8.2 1.2-4.5 2.3-9.1 3-13.7q0-0.2 0.1-0.4 0.1-1.5 0.2-2.9 0-0.1-0.1-0.2c-3.3-3.7-7.6-6.9-9.2-11.8-1-2.7-1-5.5-1.1-8.4-0.3-4.5-1.1-9-2.3-13.4-0.3-1-0.8-2.1-1.8-2.4-0.4 0-0.9 0.1-1.3 0.1-0.9 0.2-1.9 0.2-2.7-0.2-0.9-0.3-1.6-1.2-1.6-2.1 0-0.7 0.4-1.4 0.8-2 2-3.2 3.2-6.8 4.5-10.3 0.2-0.7 0.5-1.4 0.3-2.1-0.2-0.5-0.6-0.9-0.9-1.3-2.4-2.6-3.8-6.1-3.8-9.7 2.4 0.3 4.8 1.5 6.3 3.4 0.3 0.4 0.6 0.8 1 1.1 0.5 0.3 1.1 0.3 1.6 0.3q0.3 0 0.5 0c0.1-1.3-0.1-2.5-0.5-3.7-1.8-5.4-5.1-10.9-6.5-16.6-0.9-3.5-0.5-7.3 0.5-11q-0.2-0.4-0.4-0.9c-0.9-2.1-1.1-4.7-1-7.3 0.2-2.6 0.8-7.4 1.3-7.8 0.4-0.3-1 9.3 0.9 13.6 2.6-7.3 7.1-13.1 7.4-12.4 0.2 0.4-1.7 4.2-2.8 6.2-2.6 4.8-3.9 10.6-3.4 15.9q0.1 1 0.3 1.9c0.3-3.3 1.6-6.6 3.3-9.5 2.3-3.9 8.6-10.1 8.8-9.6 0.1 0.4-2.5 3.7-4.6 6.4 2.9-0.8 7.4-4.4 7.5-4.1 0.2 0.4-1 1.9-1.7 2.5q-0.6 0.5-1.3 0.9c-1.9 1.3-4 2.1-6 2.8-0.8 1.1-1.6 2.2-2.2 3.5-0.8 1.5-1.3 3.1-1.9 4.7-0.6 1.9-0.9 4.2-0.9 6.5 0.9 2.7 2.2 5.2 3.5 7.5 0.5-2.8 1.6-5.5 3.1-6.1 0.6-0.2-1.8 2.8-1.6 8.6 0.4 0.9 0.9 1.8 1.1 2.8 0.5 1.7 0.6 3.5 0.5 5.4 1.4 0.2 2.7 0.5 3.9 1.2 0.7 0.5 1.4 1.1 2 1.6 1.7-2.4 3.8-4.5 6.5-5.6 1.1-0.5 2.2-0.8 3.4-1.1 4.6-3.8 4.4-7.9 4.9-7.2 1 1.6 0.1 4.3-1.6 6.7 3.2-0.6 6.4-1.3 9.3-2.4 1.9-1.6 3.3-3.4 4.1-5.2 0.7-1.6 1.4-3.1 1.8-4.8 0.3-1.4 0.4-2.8 0.4-4.3-1.5-2.1-3-4.3-4-6.7-0.2-0.5-0.5-1-0.6-1.6-0.2-1.1-0.3-3 0.1-3.2 0.5-0.1 2.1 6 4.5 8.9 0-3.5-0.1-8 0.3-8.1 0.6-0.2 2.3 9.2 1.6 13.8-0.5 3.3-1.8 6.6-3.9 9.2q0.9-0.5 1.8-1.1c4.5-3.3 7.7-8.3 8.6-13.8 0.4-2.3 1.5-6.4 2-6.6 0.8-0.2 0.8 7.7-2.6 14.8 5.4-1 11.8-9.4 12-8.8 0.2 0.6-2.9 4.4-4.8 6.4-1.8 1.9-4 3.5-6.5 4.3q-0.9 0.2-1.9 0.4c-1.8 3-4.3 5.7-7.6 7.3-5.9 2.8-13.4 4-19.4 6.3-2.2 0.8-3.7 2.2-5 4 3.6 0.1 7-4 10.6-3.1-0.7 1.6-0.9 3.4-1.7 5-0.7 1.6-2.1 3.1-3.9 3.2-1.5 0.2-2 0.1-2.8 1.3-1.7 2.7-1.9 7.7-1.1 10.8 0.4 1.7 1.3 3.2 2.3 4.7 0.4 0.7 0.9 1.3 1.5 1.8 0.8 0.7 1.8 1 2.8 1.2 5.4 1.5 13.9 1.9 22.2 4.6 4.3 1.4 8.6 1.8 13 2.5 6.4 0.9 13.1 1.6 18.3 5.4 3.1 2.3 5.2 5.1 6 9 0.1 0.5 0.1 0.9 0.4 1.3 0.2 0.4 0.5 0.7 0.9 0.9 1.2 1.1 3.1 4.9 1.8 8-2.1-0.6-3.6-2.3-4.6-3.4-2.2 2.7-3.7 6-3.7 9.4-0.1 3.5 1.7 7 4.8 8.5 1.4 0.7 3.1 1.1 4.1 2.3 1.1 1.6 0.6 3.7 0 5.6-1 3.2-6.9 14.6-5.3 18.3 0.6-1.3 1.7-2.4 2.8-3.5-0.9 1.4-1.3 3.1-1.1 4.7q0.1 0.1 0.2 0.1c1.2-1.4 2.6-2.5 4.2-3.3q-0.9 1.2-1.6 2.6c0 0.2-0.1 0.4 0 0.5 0.1 0.3 0.5 0.2 0.8 0.1 1.8-0.6 3.4-1.9 4.5-3.5 0 1.5-0.7 2.9-1.9 3.8 0.4 0.3 1 0 1.4-0.3q2.6-1.8 5.1-3.6-0.9 1.4-1.7 2.8c-0.3 0.4-0.5 0.9-0.5 1.3q0 0.2 0.1 0.3c0.1 0.2 0.4 0.1 0.5-0.1 1.4-0.9 2.6-2.1 3.5-3.4q-0.1 2.1 0.3 4.3c0.7-1.6 1.8-3 3.3-3.9q-0.3 1.4-0.6 2.7c-0.1 0.6-0.2 1.4 0.3 1.7 0.8-2.8 2.9-5.1 5.5-6.2-1.5 2-2.1 4.7-1.6 7.1 1.3-1.2 2.2-2.8 2.6-4.6 0.7 1.4 1.1 3 1.2 4.7 1.1-2 2.7-3.8 4.6-5-0.9 1.6-1.4 3.3-1.6 5.1 2-0.7 2.9-3.1 4.9-3.6q-0.8 1.9-1.2 3.9c0 0.2-0.1 0.5 0.1 0.6 0.3 0.2 0.6-0.1 0.8-0.4 0.9-1.4 2.2-2.5 3.7-3.3-0.6 1.3-1.3 2.7-1.1 4.2 0.9-0.6 1.7-1.3 2.4-2.1 0.1 0.6 0.1 1.3-0.2 2 1.2-1 2.5-1.7 3.8-2.3-1.2 0.6-1.9 2-1.8 3.3q1.6-1.2 3.2-2.4c0.7-0.5 1.4-1.1 1.7-1.8q-0.4 2.1-1.2 4c1.9-0.9 3.6-2.1 5.2-3.5-0.6 1.6-1.7 3-3.1 3.9 1.9-0.2 3.6-1.3 5.2-2.4q-0.9 1.7-2.1 3.2c2.2-0.7 4.1-2.4 5-4.6 0.3 1.5 0.1 3.1-0.5 4.6 1.2-1.3 2.7-2.4 4.3-3.1q-1.4 1.6-2.5 3.6 3.4-1.6 7-2.9c-0.7 0.6-1.4 1.3-1.8 2.1 0.6 0.3 1.3 0 1.8-0.3q2.6-1.4 5.1-2.9c-0.3 1.9-1.1 3.7-2.3 5.1 2.3-0.1 4.6-1.7 5.6-3.8q0.1 2.4 0.3 4.8 0 0 0.1 0c1.1-1.8 2.8-3.3 4.8-4.1-0.8 1.2-1.4 2.5-1.5 3.9 1-1.2 2.3-2.1 3.7-2.8q-0.4 1.2-0.9 2.4c1.4-0.8 2.6-1.8 3.6-3 0.1 1.2 0.2 2.5 0 3.7 1.1-1.3 2.6-2.4 4.1-3.3-1.2 0.9-1.9 2.5-1.8 4 1.4-1.4 3.1-2.5 4.8-3.4-0.9 0.8-1.5 2-1.7 3.2 1.2-1.5 2.9-2.6 4.7-3.3-1.2 0.9-2 2.2-2.4 3.7 2.1-0.9 3.9-2.5 4.9-4.6 0.6 1.6 0.2 3.6-1 4.8q2.6-1.8 5.4-3.2-1 1.7-1.9 3.5c1.5-1 3.1-2 4.9-2.6-0.7 0.9-1.2 1.9-1.5 3 1.8-1.1 3.3-2.6 4.4-4.4 0.3 1.5-0.1 3.2-0.5 4.7 1.8-1.5 3.7-3 5.9-3.8-0.8 1.1-1.7 2.2-1.9 3.6 1.7-1.3 3.6-2.3 5.6-3.2-0.8 1-1.5 2.2-1.9 3.4 0 0.1-0.1 0.2 0 0.3 0.1 0.2 0.4 0.2 0.6 0.1 1.9-0.7 3.2-2.5 5.1-3.2 0.2 0.8 0 1.6-0.2 2.4q0 0.1 0 0.1 1.6-1.4 3.5-2.4-1.1 1.4-2.2 2.8 2-1.5 4.2-2.6-0.9 1.3-1.8 2.5c1.8-1.1 3.2-2.9 3.8-5q0.7 2.6 0.8 5.2c0.6-1.2 0.9-2.5 0.9-3.8q1.1 1.9 2 3.9c0.2-1.1 0.2-2.3-0.1-3.4q1.5 2.1 3 4.3c0.2-2.1 1.7-4 3.8-4.4-1 1.1-1.3 2.7-0.8 4.1 1-1.3 2.4-2.3 3.9-2.8-0.5 1-0.5 2.1-0.2 3.1 0.8-1.1 1.9-2.1 3.1-2.7-0.1 1 0.1 2 0.5 2.9 1-1.4 1.4-3.3 1.2-5.1 1.2 1.4 2.2 2.9 2.9 4.6-0.1-2 0.7-4.1 2.3-5.4-0.5 1.7-0.6 3.7-0.1 5.5 0.5-1.8 1.3-3.8 3-4.4q-0.3 1.2-0.5 2.5c-0.2 0.8-0.2 1.8 0.5 2.2 0.2-1.3 0.7-2.5 1.4-3.6 0.2 0.5 0.1 1.1 0.2 1.6 0.1 0.6 0.5 1.2 1.1 1 0.2-0.1 0.4-0.4 0.5-0.6q0.7-1.1 1.3-2.2 0.3 1.3 0.5 2.6 1.4-1.7 3.1-2.9c-1.1 1.3-1.7 3.1-1.6 4.8 0.9-1.4 2.1-2.5 3.5-3.4-0.5 1-0.7 2.1-0.7 3.2q1.2-1.4 2.2-2.9c0.3 0.2 0.3 0.6 0.3 1-0.1 0.4-0.2 0.7 0 1.1 0.1 0.3 0.5 0.6 0.8 0.4 0.1 0 0.2-0.2 0.3-0.3 0.8-1.3 0.7-3 0.7-4.5 0.8 1.4 1.5 2.9 2 4.6 0.6-1.7 1.3-3.4 2.7-4.3-0.6 1.2-0.8 2.6-0.5 4 0 0.3 0.2 0.7 0.6 0.7 0.4-1.5 1.1-2.8 2.2-3.8-0.3 1.3-0.6 2.9 0.4 3.8 0.5-1.8 1.8-3.3 3.4-4.3-0.5 1.2-0.6 2.5-0.4 3.7 0.8-1.3 2-2.5 3.4-3.2-0.5 0.8-0.9 1.7-1 2.6-0.1 0.4 0.1 1 0.5 0.8 0.1 0 0.2-0.1 0.2-0.3 0.7-1.2 1.7-2.2 2.9-3q-0.2 1.2-0.5 2.4c0 0.2 0 0.4 0.1 0.6 0.1 0.2 0.4 0.2 0.7 0.2 0.2-0.1 0.4-0.3 0.6-0.5q1.5-1.4 2.9-3c0.5 0.9 0.9 1.8 1.2 2.7q1.3-1.4 2.8-2.6c-0.8 1.1-1.2 2.5-1.2 3.8q1.6-1.5 3.1-3.1-0.3 1.3-0.5 2.5 1.5-1.5 2.8-3.2c0.6 0.9 0.3 2.1 0.4 3.2 0 0.1 0 0.2 0.1 0.3 0.2 0.1 0.4-0.1 0.5-0.2 0.6-1 0.7-2.3 0.7-3.4q0.9 1.9 1.8 3.8c0.2-0.8 0.5-1.6 0.9-2.3 0.5-0.7 1.1-1.3 1.8-1.7-0.3 0.7-0.6 1.3-0.7 2-0.1 0.6 0 1.4 0.4 1.9 0.6-1.3 1.4-2.6 2.6-3.4-0.3 1-0.5 1.9-0.4 2.9 0 0.2 0.1 0.5 0.3 0.5 0.6-1.4 1.6-2.7 2.8-3.6-0.5 1.2-1 2.4-0.7 3.7 0.9-1.4 1.9-2.7 3.2-3.7q-0.1 0.6-0.2 1.3c-0.1 0.6-0.2 1.3 0.1 1.9q0.2 0.2 0.3 0.2c0.3 0.1 0.6-0.1 0.8-0.3q1.6-1.7 2.9-3.7 0.4 1.4 0.7 3 0.2-0.3 0.5-0.6 1.3-1.4 2.8-2.5c-1 1.2-1.5 2.8-1.4 4.4 0.6-1.3 1.6-2.3 2.8-2.9-0.5 0.8-0.7 1.8-0.6 2.8 1.5-1.3 2-3.2 2.5-5 0.8 1.4 1.3 3.1 1.4 4.8 1-1.2 1.3-3 2.6-3.7q-0.3 1.3-0.6 2.6c-0.1 0.2 0 0.6 0.2 0.6 0.3 0 0.4-0.2 0.4-0.4 0.4-1.1 1.2-2 2.2-2.5-0.3 0.5-0.5 1.1-0.5 1.6-0.1 0.6 0.1 1.2 0.6 1.6 0.8-1.9 2.4-3.5 4.2-4.4-0.6 1.1-1 2.5-0.9 3.8 0.4 0 0.6-0.4 0.7-0.7 0.6-1.5 1.8-2.8 3.2-3.6-0.8 1.3-1.2 2.9-1 4.5 1.7-0.9 3-2.4 3.7-4.1q0.1 1.8 0.2 3.7 0.9-1.3 1.6-2.7 0.1 0.8 0.3 1.7c0 0.2 0.1 0.3 0.2 0.4 0.2 0 0.4-0.1 0.5-0.3q1.5-1.9 3.1-3.8 0.3 1.6 0.3 3.1c1-1.4 2.3-2.6 3.7-3.5-1.1 1.3-1.8 2.9-1.9 4.6 1-1.4 2.3-2.6 3.7-3.6q-0.8 1.6-1.4 3.2c0.2 0.2 0.4 0 0.5-0.1 1-0.9 1.7-2.2 3-2.7q-0.5 1.2-1 2.4c-0.1 0.2-0.2 0.6 0.1 0.7 0.1 0.1 0.3 0 0.4-0.2 1.6-1.3 3-2.8 4-4.6q0.4 2.3 0.4 4.6c0.9-1.2 1.4-2.7 1.9-4.1q0.1 2.2 0.2 4.4c0.8-1.5 1.9-2.8 3.1-3.9-0.6 1.2-1.2 2.5-1 3.8 0.4 0 0.7-0.4 1-0.7 0.7-1 1.7-1.8 2.8-2.3-0.7 0.9-1.4 2-1.5 3.2 0.5 0.1 0.8-0.3 1.1-0.6q1.5-1.5 3.3-2.5-0.4 1.4-0.9 2.8c0.2 0.1 0.5 0 0.7-0.2 1.8-1.1 3.3-2.8 4.3-4.6 0 0.8-0.1 1.8-0.4 2.6q1.4-1.2 3-2.2c-0.7 1.2-1.2 2.4-1.4 3.8 1.1-1.6 2.6-2.8 4.2-3.8-0.1 1.2-0.5 2.4-1.1 3.5 0.2 0 0.5-0.2 0.7-0.3 1.2-1.1 2.2-2.5 2.9-4.1 0.3 1.5 0.5 3 0.4 4.5q1.1-1.6 2.5-3c-0.6 0.8-0.8 1.7-0.8 2.7 1.4-1.4 2.9-2.9 4.8-3.5q-1.1 1.5-2.1 3.1c-0.1 0.1-0.2 0.4-0.1 0.5 0.2 0.3 0.5 0.1 0.8-0.1q2.1-1.7 4.3-3.4 0.1 1.3 0.1 2.6 1.5-1.4 3.3-2.4c-0.9 1-1.5 2.3-1.7 3.7q1.6-1.6 3.5-2.9c-0.4 0.9-0.9 1.7-1 2.7q1.6-1.3 3.1-2.7-0.4 1.1-0.9 2.1c-0.1 0.3-0.2 0.6 0 0.7 0.2 0.1 0.5 0 0.6-0.2 1.2-1.3 1.9-3.1 1.9-4.9 0.9 1.5 1.6 3.1 2 4.8 0.2-2 1.2-3.9 2.6-5.2-0.4 1.5-0.8 3-0.4 4.5 0.6-1.4 1.4-2.7 2.5-3.7-0.4 1.2-0.4 2.5-0.1 3.7 0.8-2 1.7-4.1 3.6-5.1q-0.2 0.9-0.3 1.9c-0.1 1-0.2 2.2 0.6 2.8q0.8-1.7 1.5-3.4c0.1 1.1 0.1 2.3 0.7 3.3 0.7-1.8 1.9-3.4 3.4-4.5-0.2 1.4-0.4 3.1 0.5 4.2q0.6-1.2 1.1-2.5 0.1 0.8 0.2 1.5c0.1 0.4 0.2 0.7 0.5 0.9 0.5 0.3 1-0.3 1.3-0.8q1.4-2.2 2.8-4.4 0.5 1.6 0.8 3.3c1-1.4 2.2-2.6 3.7-3.5-1.2 1.3-1.7 3.2-1.3 4.8 1.6-1.8 2.3-4.3 4.3-5.5-0.8 1.5-1.3 3.3-1.2 5 1.1-1.8 2.5-3.5 4.3-4.8-1.1 1.4-1.7 3.2-1.6 5q1.9-2.4 4.3-4.4c-0.6 1.4-1 3-1.2 4.5 0.8-1.2 1.8-2.2 2.9-3.1-0.7 1-1 2.2-0.9 3.4 1.9-1.5 3.6-3.1 5.1-5 0.4 1.5-0.4 3.1-1.3 4.4 2.3-1.3 4.4-2.8 6.3-4.6-0.2 1.9-1.7 3.3-3.2 4.6 2.4-0.7 4.6-1.8 6.5-3.2q-0.3 1.2-0.5 2.5c0.2 0.3 0.7 0 0.9-0.3 1.2-1.6 1.8-3.5 1.9-5.4q1.2 2.3 2.1 4.8 0.4-2 0.8-4c0.2 1.4 0.7 2.8 1.3 4.1 0.7-2.2 2-4.2 3.8-5.7q-0.8 2.4-1.6 4.8c-0.1 0.5-0.1 1.3 0.4 1.3 0.4-1.6 1.2-3 2.2-4.3q-0.1 2.1-0.1 4.2 2.7-3.3 5.3-6.6 0.1 0.7 0.2 1.4c0 1-0.1 1.9-0.5 2.8 1.2-1.2 2.5-2.2 3.9-3-1 1.1-1.6 2.5-1.6 3.9q2.1-1.7 4.2-3.5-0.7 1.8-1 3.7c1.2-0.5 2.2-1.6 2.8-2.8 0.6-1.2 0.8-2.5 1-3.8 0.9 1.9 1.5 4 1.8 6.2 0.7-2.1 1.9-3.9 3.6-5.3-0.5 1.5-0.9 3.1-0.9 4.7 1.2-1.8 2.7-3.5 4.4-5q-0.6 2.2-1.3 4.3 2.3-2.5 4.6-5 0 1.9 0.2 3.7c0 0.5 0.2 1.1 0.7 1.1 1.1-1.8 1.3-3.9 1.6-5.9q1.2 2.6 2.4 5.2c0.6-1.6 1.5-3.1 2.6-4.5q-0.2 1.8 0 3.5c0 0.5 0.1 1.1 0.6 1.3 0.7-1.8 1.7-3.4 2.9-4.9q-0.2 2.1-0.4 4.1c-0.1 0.4 0 0.9 0.4 0.9q1.5-2.4 3-4.9c0.1 1 0.1 2.1 0 3.1 1.1-1.3 2-2.7 1.8-4.3q0.7 2.2 1.5 4.5 0.6-2.2 1.8-4.1c-0.3 1.4-0.1 2.9 0.4 4.2 0.8-2.1 2-4 3.6-5.6q-0.5 1.9-0.5 3.8c0.8-1.7 2-3.2 3.5-4.5-0.8 1.8-0.8 3.9-0.2 5.8 1.4-1.6 2.3-3.6 2.6-5.7q0.5 2.6 1.5 4.9c1.1-1.9 2.5-3.6 4.3-5-0.4 1.8-0.4 3.6-0.2 5.4 1.1-2 2.6-3.8 4.4-5.2-0.7 1.4-1.4 3-1.1 4.6 1-2.1 2.7-3.9 4.6-5.2-0.3 1.1-0.4 2.2-0.4 3.4 0.1 0.5 0.3 1.1 0.8 1.1 0.4-0.1 0.5-0.5 0.7-0.8 0.7-2 0.9-4.3 0.5-6.4q1.6 2.7 3.1 5.4c0-2.4 1-4.8 2.7-6.5-0.4 2-0.5 4.1-0.3 6.2q1.4-2.4 2.7-4.9 0 1.9 0 3.8c0 0.4 0.2 1 0.7 0.9q1.2-3.7 2.3-7.6c0.1 2.2 0.4 4.4 1 6.5q0.5-4.1 1-8.1c0.5 2.6 1 5.4 2.7 7.4q0.6-3.2 1.9-6.3c0 1.9 0 3.8 0.5 5.7 0.1 0.4 0.3 0.8 0.7 0.8 0.2 0 0.4-0.3 0.6-0.5q2-2.8 3.4-5.9-0.7 2.3-0.9 4.8c0 0.2 0 0.5 0.2 0.6 0.3 0.3 0.8-0.1 1-0.5q1.2-1.9 2.3-3.9c0.4 1 0.4 2 0.2 3 1.5-1.3 2.8-3 3.5-4.9q0.1 2.6-0.4 5.2c0.2 0.2 0.6-0.1 0.8-0.3q2.3-2.6 4.4-5.5c0.4 1.6-1.1 2.9-1.3 4.5 1.2-0.1 2.2-0.9 3-1.8 0.8-0.8 1.5-1.8 2.5-2.5q-0.1 1.3-0.2 2.6c0 0.1 0 0.2 0 0.3 0.2 0.2 0.5 0.1 0.6-0.1 0.8-0.5 1.5-1.2 2.2-1.9 1.7-2.4 2.9-5.3 4.3-7.8q0.9-1.7 1.7-3.5c0.4-0.8 0.9-2.8 1.6-3.4-1.5 1.3-3.3 2.3-5.2 2.9 4.2-8.3 7.9-15.3 10-23.9-1 1.3-2.5 2.3-4.1 2.8 2.1-3.5 3.5-7.2 4.4-11.1-0.3 1-1.4 1.8-2.5 1.8 3.6-8.8 7.4-20.2 7.5-21.4-0.4 0.3-0.9 0.6-1.4 0.7 1.1-1.1 2-2.4 2.5-3.8-0.7 0.6-1 1.2-1.8 1.2 2.4-6.3 2.7-8.8 3.2-12.5-0.5 0.4-0.6 0.6-0.9 0.6 1.3-3.3 1.9-4.6 2.8-9.1-0.4 0.7-0.4 0.3-0.8 0.7 1.2-2.5 2.6-9.6 2.6-12.1 0.4 3.5 1.1 7.2 2.9 10.1-0.5-0.3-0.8-0.6-1.3-1.3 2 9.4 2.3 17.3 7.7 24.1q-1-0.3-2-0.6c0.3 1.7 0.9 3.4 1.8 4.9q-1-0.5-2-1c2.2 6.6 3.4 9.5 7.6 15.3-1.4-0.6-2.6-1.4-3.5-2.5q1.9 3.7 3.9 7.5c-1.7-0.1-2.5-0.7-3.8-1.7 2.3 7.1 6.3 16.6 10.2 22.9-1.1-0.1-2-0.3-3.5-1.5 1.2 3.2 2 4.3 3.7 7.1-1-0.1-1.9-0.5-2.6-1.2 1.2 1.2 1.6 3.6 2.4 5.1 1.3 2.4 3.2 4.7 4.8 7.1-0.4-2.6 0.7-5.4 2.7-7.1q-0.1 2.3-0.2 4.6 0.6-1.5 1.5-2.8c-0.1 1.5 0 2.9 0.4 4.3q1.6-2.3 3.2-4.6c0.1 1.3 0.1 2.6-0.2 3.9 1.8-2.2 2.9-4.9 3.2-7.7 1.4 2.3 1.5 5.3 0.3 7.6 2.2-1.1 3.9-3 4.6-5.3 0.3 1.7 0 3.4-0.8 4.9q2-2.3 4-4.7c0 1.4-0.5 2.8-1.3 3.8 2.8-1.1 5.1-3.2 6.7-5.7-1 0.6-2.2 1-3.4 1.1q3.2-2.6 5.8-5.8-3.1 0.8-6.2 1.6c4.1-1.1 5.3-5.4 6.9-8.7 2.2-4.5 5.4-8.5 7.6-13.1-1.9 1-2.9 1.5-5.3 1.6q2.8-3.6 5.5-7.1c-1.3 1-3 1.8-4.9 2.3 5.8-5.4 7.5-8.2 10.6-14.4q-1.4 0.4-2.8 0.9c1.2-1.5 2-3 2.4-4.6q-1.4 0.3-2.8 0.5c7.6-6.5 8-14 10.7-22.9-0.7 0.7-1 1-1.8 1.3 2.5-2.8 3.6-6.3 4.1-9.6 0 2.3 2 9.1 3.6 11.4-0.5-0.3-0.6 0.1-1.2-0.6 1.3 4.3 2.2 5.5 4 8.6-0.4 0-0.6-0.1-1.3-0.6 0.7 3.5 1.2 6 4.4 12-1 0-1.4-0.6-2.4-1.2 0.7 1.3 1.9 2.6 3.5 3.6-0.7-0.1-1.4-0.3-1.9-0.7 0 0.8 2.3 5.7 5.3 11.3 4.2-6.6 8-14.4 10.6-20.7-1.9 1.1-2.9 1.8-5.3 1.8q2.7-4.2 5.5-8.5c-1.3 1.3-3 2.2-4.9 2.9 5.7-6.6 7.5-10 10.6-17.4q-1.4 0.5-2.8 1c1.1-1.7 2-3.6 2.4-5.5q-1.4 0.3-2.8 0.7c7.6-7.9 8-16.9 10.7-27.6-0.7 0.8-1 1.2-1.8 1.6 2.5-3.5 3.5-7.7 4.1-11.6 0 2.8 1.9 11 3.6 13.8-0.5-0.5-0.6 0-1.2-0.8 1.3 5.1 2.2 6.7 4 10.4-0.4 0-0.6-0.2-1.3-0.7 0.7 4.2 1.2 7.1 4.4 14.3-1.1 0-1.4-0.7-2.4-1.4 0.7 1.6 1.9 3.1 3.4 4.4-0.7-0.2-1.3-0.5-1.8-0.9 0 1.2 3.4 9.6 7.3 18.1 6-9.2 11.8-20.4 15.7-29.4-2.5 1.6-3.9 2.4-7 2.3q4-6 7.9-12c-1.8 1.7-4 3-6.5 3.8 8-9.1 10.6-13.9 15.3-24.5q-1.8 0.7-3.7 1.4c1.7-2.5 3-5.1 3.7-7.9q-1.8 0.4-3.6 0.8c10.5-10.8 11.9-23.9 16.6-39.3-1 1.1-1.5 1.6-2.5 2.1 3.5-4.8 5.3-10.8 6.4-16.5-0.3 4.1 1.3 16.2 3.1 20.4-0.6-0.6-0.8 0-1.4-1.2 1.1 7.6 2.1 9.9 4 15.5-0.5 0-0.8-0.3-1.6-1.2 0.4 6.3 0.8 10.6 4.1 21.4-1.4-0.1-1.8-1.1-3-2.3 0.8 2.4 2.1 4.8 4 6.7-0.9-0.2-1.7-0.7-2.3-1.4-0.1 1.6 3 13.3 6.9 25.5 6.3-12.1 12.2-26.3 16.1-37.8-3 2.2-4.6 3.4-8.4 3.5q4.4-8 8.7-16c-2.1 2.4-4.8 4.2-7.8 5.4 9.2-12.3 11.9-18.7 16.8-32.7q-2.2 1-4.4 2c1.8-3.2 3.1-6.8 3.8-10.4q-2.2 0.7-4.4 1.3c12-14.7 12.6-31.6 16.9-51.8-1.1 1.6-1.6 2.2-2.9 2.9 4-6.4 5.7-14.3 6.5-21.6 0 5.2 3.1 20.5 5.7 25.8-0.8-0.8-0.9 0-1.8-1.4 2 9.6 3.4 12.5 6.3 19.5-0.7 0-1-0.4-2-1.4 1 7.9 1.8 13.4 6.9 26.9-1.7 0-2.3-1.2-3.8-2.7 1.1 3.1 3 6 5.4 8.3-1.1-0.3-2.1-0.8-2.9-1.6 0.1 2.7 8.4 27.1 16.4 46-2.5 0-4.9-1.8-5.5-4 1.9 8.3 5.1 16.4 9.7 23.8-3.6-1-6.8-3.2-9-6 1.9 7.9 4.5 15.1 7.6 22.3 2.2-3.5 3.7-6 5.6-11-3.3 2.4-5.2 2.9-7.7 3 8.6-13.1 17.4-32.6 22.6-47.5-3 2.1-4.6 3.4-8.4 3.5q4.3-7.8 8.6-15.6c-2 2.3-4.7 4.1-7.7 5.2 9.1-11.9 11.9-18.1 16.8-31.6q-2.2 1-4.5 1.9c1.9-3.1 3.2-6.5 3.9-10q-2.2 0.6-4.4 1.2c12-14.3 12.6-30.6 16.9-50.2-1.1 1.5-1.6 2.2-2.9 2.9 4-6.2 5.7-13.9 6.5-21 0 5 3.1 19.9 5.7 25-0.8-0.8-1 0-1.8-1.4 1.9 9.3 3.4 12.1 6.3 18.9-0.7 0-1-0.4-2.1-1.3 1.1 7.7 1.9 13 7 26.1-1.7 0-2.3-1.3-3.9-2.7 1.2 3 3.1 5.8 5.5 8.1-1.1-0.3-2.2-0.8-3-1.6 0.2 2.6 8.5 26.3 16.5 44.6-2.5 0-4.9-1.7-5.5-3.9 1.8 8.1 5.1 15.9 9.6 23.1-3.6-1.1-6.7-3.1-8.9-5.9 4.5 18 12.6 32.5 22 49.8-4.2-1.3-8.2-3.4-11.5-6 1.6 1.2 2.5 5.2 3.4 6.9q1.9 3.7 3.9 7.3c2.6 4.7 5.4 9.3 8.3 13.8 3.5 5.6 6.7 11.2 10.1 16.7 11.1-0.5 22.6 0 31.6 4.3 9 4.4 13.4 11.5 17 18.2 10.9 20.2 19 40.8 24.3 61.7 2.9 11.7 4.9 23.8-0.1 34.9zm-1072.3-85.1c0.6-0.7 1.3-1.3 2-1.9 1.5-1.5 2.9-3.1 4-4.9 0.4-0.7 0.8-1.4 1-2.1 0.2-0.7 0.1-1.4 0.1-2.1q-0.1-3.4-0.3-6.8c-0.1-2.3-0.2-4.7-0.8-6.9-0.3-1-0.4-1.5-1.4-1.7q-0.4-0.1-0.7-0.1c-1.1 1.7-2 3.6-2.5 5.3-1.5 5.1-1.3 17.5-1.4 21.2zm-268.8-19.3q-0.3 0.1-0.7 0.3 0.3 0.7 0.5 1.3 0.1-0.1 0.1-0.3 0-0.7 0.1-1.3zm5.7 1.9q-0.2-0.2-0.3-0.3-0.2 0.1-0.4 0.2 0.3 0.3 0.6 0.5c0.1-0.2 0.1-0.3 0.1-0.4zm176.1 15.7q-0.2-0.1-0.3-0.1c0 0.1 0 0.1 0.1 0.2q0.1-0.1 0.2-0.1zm7.6 1.9q0-0.4-0.1-0.8-1.2-0.1-2.4-0.3c-0.3 0.9-0.2 1.9 0.5 2.8 0.5 0.1 1.3-0.1 1.6-0.5 0.4-0.4 0.4-0.8 0.4-1.2zm46-1.5c-0.9-2.5-2.2-4.9-3.8-7.1-0.4-0.6-0.9-1.3-0.9-2 0-0.8 0.5-1.4 0.9-2.1 1.3-1.8 2.4-3.8 3.2-5.9q-0.2 0.1-0.3 0.1c-1.3 0.9-2.8 1.6-4 2.6-1.6 1.2-2.9 2.7-4.3 4.1q-2 2-4.3 3.5c-1.3 0.9-2.7 2-2.8 3.7-0.1 3.4-0.4 7.1 2.5 9.2 0.1 0.1 0.2 0.2 0.4 0.2 0.1-0.1 0.2-0.2 0.3-0.4q0.6-1.1 0.9-2.3 0.1 1.2 0.3 2.5 0.8-1.1 1.7-2.1 0 1.2-0.1 2.5 0.9-1.6 1.8-3.1c0.3 1.5 0.1 3-0.5 4.3 1.6-1.1 2.9-2.6 3.7-4.3 0.1 1.8-0.6 3.7-1.8 5.1 2.1-1.4 4.2-3.1 5.9-4.9-0.4 1.6-1.2 3.1-2.2 4.4 1.5-0.8 2.7-2.4 3-4.1q-0.3 2.8-0.6 5.7 0.5-1.6 1.5-2.9 0.8 2.2 1.6 4.4 0.1-0.3 0.1-0.6c0.8-3.7-0.9-7.1-2.2-10.5zm-0.4 3.3q0 0.3 0 0.6 0-0.3 0-0.6zm20.2 2.1q1.3 3.3 2 6.9c0.4-1.9 1.3-3.6 2.4-5.1q-0.3 2.6-0.6 5.3c0.4-1.9 1.4-3.6 2.8-5q-0.2 2.4 0.1 4.7c0.1 0.4 0.2 0.8 0.6 0.8 0.4 0.1 0.6-0.4 0.7-0.7 1.3-5.2 0.2-9.5-0.5-14.5-0.7-5.8-1.8-11.5-3.5-17-0.3-0.9-0.6-1.9-1.2-2.6-0.8-1-1.9-1.5-3-1.9q-0.5 1.3-1.2 2.6c-2.9 5-7.8 8.4-12.6 11.5-0.7 0.5-1.5 1-2 1.8-0.7 1.3-0.3 3 0.1 4.5 0.6 1.7 1.2 3.5 1.5 5.3 0.5 2.6 0.5 5.3 3.1 6.6 1.3 0.7 2.3 1.8 2.7 3.1 0.6-1.2 0.7-2.7 0.3-4 1.1 1.1 1.8 2.5 2.1 4 0.7-2 1.9-3.8 3.5-5.2 0 1-0.5 1.9-0.9 2.8-0.3 0.9-0.5 2 0.1 2.8 0.6-1.7 1.5-3.2 2.7-4.6q-0.6 2.5-0.5 5 0-0.1 0.1-0.2c1.1-2.1 1.5-4.5 1.2-6.9zm547.8 35.5q0 0 0 0 0 0 0.1 0zm-36.5 3.7q0 0.1 0 0.1 0 0 0 0zm-409.9-25.9c0.3 3.9 0.1 8 1.1 11.8 0.5-1.5 1.5-2.8 2.8-3.8-0.9 1.4-1.3 3.2-0.8 4.8 1.4-1.1 2.5-2.5 3.3-4.1-0.5 1.6-0.7 3.2-0.7 4.9q1.9-2.4 3.9-4.8-0.9 2.1-1.9 4.2 2.3-2.4 5-4.4-1.7 3.1-3.5 6.2c2.6-1.1 4.9-3.1 6.4-5.5-0.4 2.2-1.5 4.2-3.1 5.7 2.1-1 3.8-2.9 4.6-5.1 0.1 1.7-0.3 3.3-1.1 4.8 1-1.8 2.3-3.5 3.9-4.9q-0.6 2.1-1.1 4.3c0.9-1.6 2.2-3.1 3.7-4.1-0.7 2-1.1 4.2-1.2 6.4 0.8-1.8 2-3.4 3.5-4.7q-0.5 2.4-0.9 4.8 1.6-2.4 3.7-4.5c-0.3 1.5-0.8 3-1.6 4.3 1.7-2.9 5-4.8 6.6-7.8 1.5-2.8 4.1-5.1 4.8-8.3 0-0.4 0.1-0.8 0-1.2-0.1-0.6-0.6-1.1-1.1-1.6q-2.2-2.3-4.3-4.7c-2.1-2.4-4.2-5.1-5-8.2-5.9-1.4-9.4-2.8-16.6-4.3-1.7-0.3-3.5-0.6-5.2-0.1-3.2 1-4.7 4.6-5.2 7.9-0.5 4-0.3 8.1 0 12zm15.8 15q0.1-0.2 0.2-0.3-0.1 0.1-0.2 0.3zm-33.7-4.7c-0.1-1.3 0.1-2.6 0.5-3.8 0.3 1.3 0.7 2.6 1.5 3.8 0-1.8 0.9-3.5 2.2-4.7q-0.3 2.4-0.6 4.7c0.6-1.9 1.8-3.7 3.2-5.1-0.6 1.8-0.9 3.8-1 5.7 1.4-1.5 2.3-3.4 2.6-5.5q0.5 3.1 0.3 6.2 1.6-2 2.7-4.4c0.3 1.5 0.1 3.1-0.5 4.5 0.8-0.1 1.5-0.6 1.8-1.3 0.3-0.6 0.4-1.3 0.4-1.9 0.4-7-1.4-14.5-3.7-21q-0.5-1.5-1.2-2.8c0.2 0.4-2.7 4.7-3.1 5.4q-1.4 2.7-2.7 5.5c-1.9 4.2-5.5 10.3-2.4 14.7zm68.5-8.8c-0.6-1.4-2-2.2-3.3-2.9-2-1.1-3.7-2.2-5.3-3.5q0.9 2 1.9 4c0.2 0.5 0.4 1 0.4 1.6 0 1-0.8 1.9-1.7 2.6-2 1.8-4.3 3.8-5.8 6.1q-2.7 3.9-5.9 7.3c1.4-0.8 2.8-1.6 4.3-2.1-1.1 0.8-2.1 1.8-2.8 2.9 2-0.2 3.9-0.9 5.6-1.9-0.3 1.2-1.9 1.8-2.4 3 2.4-0.4 4.6-2.5 5-5 0.4 1.7 0.5 3.6 0.1 5.3 1-1.6 2.4-3 4.1-3.9-0.6 0.7-1.1 1.6-1.3 2.4 0.6-0.2 1.2-0.4 1.8-0.6q0.9-0.6 1.8-1.1-0.1 0.2-0.2 0.5c1.4-0.8 1.3-1.6 1.7-3q1.4-4.4 2.1-9c0.1-0.9 0.2-1.9-0.1-2.7zm625.1-59.9q-0.1-0.1-0.2-0.2-0.3 0.2-0.6 0.4 0.1 0.4 0.2 0.8 0.3-0.5 0.6-1zm55.7-31.9q-0.3-0.3-0.6-0.8-0.1 0.1-0.2 0.2 0.2 0.9 0.4 1.7 0.2-0.5 0.4-1.1zm76.5-8.3c-0.6 0.6-1.3 1.1-2 1.5q0.3 0.7 0.6 1.4c0.6-1.1 1-2.1 1.4-2.9z"/></g></svg>